<?xml version="1.0" standalone="no"?>
<!DOCTYPE svg PUBLIC "-//W3C//DTD SVG 20010904//EN"
 "http://www.w3.org/TR/2001/REC-SVG-20010904/DTD/svg10.dtd">
<svg version="1.0" xmlns="http://www.w3.org/2000/svg"
 width="320.000000pt" height="320.000000pt" viewBox="0 0 320.000000 320.000000"
 preserveAspectRatio="xMidYMid meet">
<metadata>
Created by potrace 1.11, written by Peter Selinger 2001-2013
</metadata>
<g transform="translate(0.000000,320.000000) scale(0.100000,-0.100000)"
fill="#000000" stroke="none">
<path d="M2040 3179 c-78 -7 -205 -41 -263 -70 -207 -104 -343 -314 -403 -624
-14 -74 -20 -263 -10 -355 30 -269 119 -465 292 -637 l92 -92 -29 -53 c-16
-29 -32 -60 -36 -68 -24 -51 -135 -225 -202 -315 -71 -95 -209 -227 -270 -258
-71 -35 -129 -36 -169 -3 -61 52 -129 233 -147 392 -4 32 -9 67 -11 77 -24
130 -24 777 0 962 2 17 7 62 10 100 8 86 16 152 21 185 3 14 7 48 11 75 6 56
8 71 24 165 36 222 14 329 -82 402 -104 79 -311 85 -435 12 -47 -27 -96 -92
-119 -156 -18 -50 -59 -240 -69 -313 -3 -27 -8 -66 -11 -85 -10 -71 -13 -96
-19 -155 -3 -33 -8 -78 -10 -100 -14 -126 -20 -316 -20 -595 0 -345 6 -450 41
-675 29 -193 104 -445 171 -580 171 -341 464 -470 828 -364 76 23 255 107 255
120 0 5 5 9 11 9 21 0 166 118 265 215 107 106 194 209 287 340 31 44 61 85
65 90 17 20 142 235 172 295 l31 62 47 -6 c204 -28 413 -28 492 -2 79 26 133
74 172 154 29 59 33 76 33 147 0 88 -18 130 -76 179 -51 43 -98 51 -324 57
-55 1 -105 4 -112 6 -9 4 -8 16 3 51 22 71 72 272 78 316 4 21 8 41 10 45 2 3
7 35 11 71 4 36 9 74 12 85 2 11 6 81 8 155 5 196 -25 342 -98 472 -40 71
-126 161 -187 195 -54 31 -153 63 -209 69 -26 3 -50 6 -56 8 -5 1 -39 -1 -75
-5z m-2 -634 c19 -54 10 -283 -13 -365 -2 -8 -7 -31 -10 -50 -12 -71 -38 -151
-47 -142 -5 5 -20 41 -34 81 -43 123 -37 368 10 459 38 73 73 79 94 17z"/>
</g>
</svg>
