<?xml version="1.0" standalone="no"?>
<!DOCTYPE svg PUBLIC "-//W3C//DTD SVG 20010904//EN"
 "http://www.w3.org/TR/2001/REC-SVG-20010904/DTD/svg10.dtd">
<svg version="1.0" xmlns="http://www.w3.org/2000/svg"
 width="320.000000pt" height="320.000000pt" viewBox="0 0 320.000000 320.000000"
 preserveAspectRatio="xMidYMid meet">
<metadata>
Created by potrace 1.11, written by Peter Selinger 2001-2013
</metadata>
<g transform="translate(0.000000,320.000000) scale(0.100000,-0.100000)"
fill="#000000" stroke="none">
<path d="M1964 3060 c-259 -59 -445 -254 -518 -546 -53 -207 -56 -383 -11
-586 42 -189 119 -333 247 -465 l51 -51 -48 -84 c-162 -282 -342 -478 -428
-466 -47 7 -95 126 -123 303 -22 140 -30 608 -14 828 10 150 26 289 72 629 20
147 -11 250 -98 327 -63 55 -132 76 -254 76 -137 0 -198 -21 -270 -93 -68 -68
-89 -119 -124 -295 -88 -437 -110 -1111 -50 -1517 98 -672 341 -990 754 -990
391 0 786 311 1132 893 71 120 85 138 102 132 12 -3 89 -8 172 -12 192 -8 279
9 352 67 103 81 157 220 132 343 -19 99 -80 169 -172 199 -18 6 -85 13 -148
17 -95 5 -114 9 -112 21 2 8 17 73 34 145 127 551 45 910 -247 1080 -59 35
-191 65 -277 64 -40 0 -110 -9 -154 -19z m337 -173 c69 -33 152 -118 184 -189
43 -94 55 -162 55 -311 0 -210 -35 -415 -111 -645 -17 -51 -29 -96 -26 -98 9
-9 131 -23 272 -30 83 -4 151 -12 166 -20 59 -29 65 -142 13 -216 -49 -69 -77
-78 -239 -78 -77 0 -185 7 -239 15 -55 8 -100 15 -102 15 -1 0 -28 -48 -60
-107 -131 -246 -261 -430 -423 -597 -169 -174 -307 -267 -471 -317 -103 -31
-250 -31 -331 0 -206 79 -340 300 -413 681 -44 227 -51 325 -51 690 0 364 10
509 50 796 46 318 79 375 232 399 54 8 144 -10 178 -36 64 -51 69 -102 31
-359 -40 -275 -56 -465 -63 -740 -12 -517 44 -840 167 -974 49 -53 94 -71 161
-63 174 21 384 250 592 646 l61 115 -24 15 c-158 104 -272 269 -322 466 -30
121 -32 369 -4 490 57 247 176 393 376 463 56 19 81 22 175 19 95 -2 118 -7
166 -30z"/>
<path d="M1976 2549 c-66 -52 -106 -176 -106 -334 0 -172 42 -293 134 -392
l52 -56 32 104 c52 170 73 277 79 410 7 148 -5 214 -47 259 -23 25 -36 30 -73
30 -30 0 -53 -7 -71 -21z"/>
</g>
</svg>
